/* XPM */
static char *result[] = {
/* columns rows colors chars-per-pixel */
"34 34 3 1 ",
"  c #626262",
". c #70706F",
"X c #7C7C7A",
/* pixels */
".XXXXXXXXXXXXXXXXXXX...XX..X..... ",
"X................................ ",
"X................................ ",
"X................................ ",
"X................................ ",
"X................................ ",
"X................................ ",
"X.......... ..................... ",
"X.....................   ........ ",
"X.....................   ........ ",
"X................................ ",
"X................................ ",
"X................................ ",
"X................................ ",
"X................................ ",
"X................................ ",
"X................................ ",
"X........ ....................... ",
"X................................ ",
"X................................ ",
"X................................ ",
"X................................ ",
"X................................ ",
"X................................ ",
"X.................  ............. ",
"X.................  ............. ",
"X................................ ",
"X................................ ",
"X................................ ",
"X................................ ",
"X................................ ",
"X................................ ",
"X................................ ",
"                                  "
};
