/* XPM */
static char *result[] = {
/* columns rows colors chars-per-pixel */
"34 34 14 1 ",
"  c black",
". c #010101",
"X c #020202",
"o c gray10",
"O c #1B1B1B",
"+ c #232323",
"@ c gray15",
"# c #2D2D2D",
"$ c #313131",
"% c gray30",
"& c #4E4E4E",
"* c #5A5A5A",
"= c #656565",
"- c white",
/* pixels */
"                                  ",
" -------------------------------- ",
" -------------------------------- ",
" -------. --..-- .-- X--  ------- ",
" ------- .-- .-- .--  --. ------- ",
" ------- o  o+  #$  $%  =.------- ",
" -------.ooooo+@@#$$%%*==X------- ",
" --------.              X-------- ",
" --------- oooo+@##$%*=X--------- ",
" ---------              --------- ",
" -------- oooo+@#$%%%**= -------- ",
" ---------             .--------- ",
" ---------- oooo@###%* ---------- ",
" ---------- ooo+@#$%*= ---------- ",
" ----------- o+@#$%** ----------- ",
" ----------- o+@#$%*= ----------- ",
" ----------- o+@$%%*= ----------- ",
" ------------ +@$%*= ------------ ",
" ------------ +@$%*= ------------ ",
" ------------ +@$%*= ------------ ",
" ----------- o+@$%*==X----------- ",
" ----------- o+@$%%*= ----------- ",
" ----------Xoo+@#$%*==.---------- ",
" ---------- oo+@#$%%*= ---------- ",
" ---------- ooo@##$%** ---------- ",
" ---------.oooo+@#$$%*= --------- ",
" --------Xoooooo+@#$$%*= -------- ",
" ------.X                  ------ ",
" ------- ooooooo+@@#$%&*=.------- ",
" -------- ooooooOo+@@#$*.-------- ",
" -------- ooooooo+@@#$**.-------- ",
" -------XOoooooo+@@#$*%*= ------- ",
" ------..                 .------ ",
"                                  "
};
