/* XPM */
static char *result[] = {
/* columns rows colors chars-per-pixel */
"34 34 21 1 ",
"  c black",
". c #010000",
"X c #010101",
"o c #020202",
"O c gray10",
"+ c #1B1B1B",
"@ c #232323",
"# c gray15",
"$ c #2D2D2D",
"% c #313131",
"& c #421B00",
"* c #431B00",
"= c #572400",
"- c #582400",
"; c #6F2E00",
": c #702E00",
"> c gray30",
", c #4E4E4E",
"< c #5A5A5A",
"1 c #656565",
"2 c white",
/* pixels */
"                                  ",
" 222222222222        222222222222 ",
" 222222222   ========   222222222 ",
" 2222222X -=  ::  :: .==  2222222 ",
" 222222   ::  ::  ::  ::   222222 ",
" 22222 = O  O@  $%  %>  1 - 22222 ",
" 2222 -: OOOOO@##$%%>><11.:= 2222 ",
" 222 =:::               .:::- 222 ",
" 222 -::*& OOOO@#$$%><1.&&::- 222 ",
" 22 -:::&;              ;&:::- 22 ",
" 2 =:::&; OOOO@#$%>>><<1 :&:::- 2 ",
" 2 =::*&::              ::&*::= 2 ",
" 2 =::&::&& OOOO#$$$>< &&::&::= 2 ",
"  =:::&:*&& OOO@#$%><1 &&*:&:::-  ",
"  =::&;:&&&& O@#$%><< &&&&::&::=  ",
"  =::&:::&&; O@#$%><1 ;&&:::&::=  ",
"  =::&::::&& O@#%>><1 &&::::&::-  ",
"  =::&::::&&& @#%><1 &&&::::&::=  ",
"  =::&:::::&& @#%><1 &&:::::&::=  ",
"  =::&::::;&& @#%><1 &&;::::&::=  ",
"  =:::&::::: O@#%><11 :::::&:::=  ",
" 2 =::&::::: O@#%>><1 :::::&::= 2 ",
" 2 =::*&::: OO@#$%><11 :::&*::= 2 ",
" 2 =:::&::: OO@#$%>><1 ::;&:::- 2 ",
" 22 -:::&;: OOO#$$%><< ::&:::- 22 ",
" 222 -::&& OOOO@#$%%><1 &&::- 222 ",
" 222 -:::.OOOOOO@#$%%><1 :::- 222 ",
" 2222 = .                  = 2222 ",
" 22222 = OOOOOOO@##$%>,<1 - 22222 ",
" 222222   OOOOOO+O@##$%<   222222 ",
" 22222222 OOOOOOO@##$%<< 22222222 ",
" 2222222o+OOOOOO@##$%<><1 2222222 ",
" 222222XX                 X222222 ",
"                                  "
};
