/* XPM */
static char *result[] = {
/* columns rows colors chars-per-pixel */
"34 34 19 1 ",
"  c black",
". c #010000",
"X c gray10",
"o c #1B1B1B",
"O c #232323",
"+ c gray15",
"@ c #2D2D2D",
"# c #313131",
"$ c #3A3A3A",
"% c #421B00",
"& c #431B00",
"* c #572400",
"= c #582400",
"- c #6F2E00",
"; c #702E00",
": c gray30",
"> c #4E4E4E",
", c #5A5A5A",
"< c #656565",
/* pixels */
"                                  ",
" $$$$$$$$$$$$        $$$$$$$$$$$$ ",
" $$$$$$$$$   ********   $$$$$$$$$ ",
" $$$$$$$  =*  ;;  ;; .**  $$$$$$$ ",
" $$$$$$   ;;  ;;  ;;  ;;   $$$$$$ ",
" $$$$$ * X  XO  @#  #:  < = $$$$$ ",
" $$$$ =; XXXXXO++@##::,<<.;* $$$$ ",
" $$$ *;;;               .;;;= $$$ ",
" $$$ =;;&% XXXXO+@@#:,<.%%;;= $$$ ",
" $$ =;;;%-              -%;;;= $$ ",
" $ *;;;%- XXXXO+@#:::,,< ;%;;;= $ ",
" $ *;;&%;;              ;;%&;;* $ ",
" $ *;;%;;%% XXXX+@@@:, %%;;%;;* $ ",
"  *;;;%;&%% XXXO+@#:,< %%&;%;;;=  ",
"  *;;%-;%%%% XO+@#:,, %%%%;;%;;*  ",
"  *;;%;;;%%- XO+@#:,< -%%;;;%;;*  ",
"  *;;%;;;;%% XO+#::,< %%;;;;%;;=  ",
"  *;;%;;;;%%% O+#:,< %%%;;;;%;;*  ",
"  *;;%;;;;;%% O+#:,< %%;;;;;%;;*  ",
"  *;;%;;;;-%% O+#:,< %%-;;;;%;;*  ",
"  *;;;%;;;;; XO+#:,<< ;;;;;%;;;*  ",
" $ *;;%;;;;; XO+#::,< ;;;;;%;;* $ ",
" $ *;;&%;;; XXO+@#:,<< ;;;%&;;* $ ",
" $ *;;;%;;; XXO+@#::,< ;;-%;;;= $ ",
" $$ =;;;%-; XXX+@@#:,, ;;%;;;= $$ ",
" $$$ =;;%% XXXXO+@##:,< %%;;= $$$ ",
" $$$ =;;;.XXXXXXO+@##:,< ;;;= $$$ ",
" $$$$ * .                  * $$$$ ",
" $$$$$ * XXXXXXXO++@#:>,< = $$$$$ ",
" $$$$$$   XXXXXXoXO++@#,   $$$$$$ ",
" $$$$$$$$ XXXXXXXO++@#,, $$$$$$$$ ",
" $$$$$$$ oXXXXXXO++@#,:,< $$$$$$$ ",
" $$$$$$                    $$$$$$ ",
"                                  "
};
