/* XPM */
static char *result[] = {
/* columns rows colors chars-per-pixel */
"34 34 21 1 ",
"  c black",
". c #010000",
"X c gray12",
"o c #202020",
"O c gray15",
"+ c #2A2A2A",
"@ c #2D2D2D",
"# c #313131",
"$ c #3A3A3A",
"% c #421B00",
"& c #431B00",
"* c #572400",
"= c #582400",
"- c #6F2E00",
"; c #702E00",
": c gray30",
"> c #5A5A5A",
", c #5B5B5B",
"< c #656565",
"1 c gray40",
"2 c #676767",
/* pixels */
"                                  ",
" $$$$$$$             $$$$$$$$$$$$ ",
" $$$$$$$$ X:>. ******   $$$$$$$$$ ",
" $$$$$$$$  +:><   ;;;*** $$$$$$$$ ",
" $$$$$$   O#:::,>1  ;;;;*  $$$$$$ ",
" $$$$$  OO:::::>>>>< ;;;;== $$$$$ ",
" $$$$  O#::>>:::::>>< %;;;;* $$$$ ",
" $$$  XO:::>>:#:::::>< %;;;;= $$$ ",
" $$$ XO::##:>:O##::::<< %%;;= $$$ ",
" $$ X#:OO++#:: XO#::::<< %;;;= $$ ",
" $ XO: XO+#:: ; XO+##::<<.%;;;= $ ",
" $ O# & +#::.;;; XO+##:>< %&;;* $ ",
" $   ; O#   ;;;% XO+#:::<< %;;* $ ",
"  *;; X@ %%%;;; XO+##::>>< %;;;=  ",
"  *;; . %%%%;;; X++#:::><< ;%;;*  ",
"  *;;%;;;%%-;; XO+#:::>><< ;%;;*  ",
"  *;;%;;;;%%% XX+#::::><<2.;%;;=  ",
"  *;;%;;;;%% XX+#:::>>><1 ;;%;;*  ",
"  *;;%;;;;; XXO+#::>>>><2.;;%;;*  ",
"  *;;%;;;;.XXO+#:::>>><<.;;;%;;*  ",
"  *;;;%;;; XO++#::>>>><<.;;%;;;*  ",
" $ *;;%;; XXO+#::>>><<<.;;;%;;* $ ",
" $ *;;&%; XXO+#::>><<<< ;;%&;;* $ ",
" $ *;;;%;; XO+#::>><<< ;;-%;;;= $ ",
" $$ =;;;%- XX+##:>><<<.;;%;;;= $$ ",
" $$$ =;;%%- XO+##:>>< ;;%%;;= $$$ ",
" $$$ =;;;;%  XO+#:>>> %%;;;;= $$$ ",
" $$$$ *                    * $$$$ ",
" $$$$$ * XXXXXXOO++#::><<.= $$$$$ ",
" $$$$$$   XXXXXXXOO+##:<   $$$$$$ ",
" $$$$$$$$ XXXXXXOO+##:>< $$$$$$$$ ",
" $$$$$$$ oXXXXXO++#::>>>< $$$$$$$ ",
" $$$$$$                    $$$$$$ ",
"                                  "
};
