/* XPM */
static char *result[] = {
/* columns rows colors chars-per-pixel */
"34 34 23 1 ",
"  c black",
". c #010000",
"X c #010101",
"o c #020202",
"O c gray12",
"+ c #202020",
"@ c gray15",
"# c #2A2A2A",
"$ c #2D2D2D",
"% c #313131",
"& c #421B00",
"* c #431B00",
"= c #572400",
"- c #582400",
"; c #6F2E00",
": c #702E00",
"> c gray30",
", c #5A5A5A",
"< c #5B5B5B",
"1 c #656565",
"2 c gray40",
"3 c #676767",
"4 c white",
/* pixels */
"                                  ",
" 4444444 X           444444444444 ",
" 44444444 O>,. ======   444444444 ",
" 44444444  #>,1   :::=== 44444444 ",
" 444444   @%>>><,2  ::::=  444444 ",
" 44444  @@>>>>>,,,,1 ::::-- 44444 ",
" 4444  @%>>,,>>>>>,,1 &::::= 4444 ",
" 444  O@>>>,,>%>>>>>,1 &::::- 444 ",
" 444 O@>>%%>,>@%%>>>>11 &&::- 444 ",
" 44 O%>@@##%>> O@%>>>>11 &:::- 44 ",
" 4 O@> O@#%>> : O@#%%>>11.&:::- 4 ",
" 4 @% * #%>>.::: O@#%%>,1 &*::= 4 ",
" 4   : @%   :::& O@#%>>>11 &::= 4 ",
"  =:: O$ &&&::: O@#%%>>,,1 &:::-  ",
"  =:: . &&&&::: O##%>>>,11 :&::=  ",
"  =::&:::&&;:: O@#%>>>,,11 :&::=  ",
"  =::&::::&&& OO#%>>>>,113.:&::-  ",
"  =::&::::&& OO#%>>>,,,12 ::&::=  ",
"  =::&::::: OO@#%>>,,,,13.::&::=  ",
"  =::&::::.OO@#%>>>,,,11.:::&::=  ",
"  =:::&::: O@##%>>,,,,11.::&:::=  ",
" 4 =::&:: OO@#%>>,,,111.:::&::= 4 ",
" 4 =::*&: OO@#%>>,,1111 ::&*::= 4 ",
" 4 =:::&:: O@#%>>,,111 ::;&:::- 4 ",
" 44 -:::&; OO#%%>,,111.::&:::- 44 ",
" 444 -::&&; O@#%%>,,1 ::&&::- 444 ",
" 444 -::::&  O@#%>,,, &&::::- 444 ",
" 4444 =                    = 4444 ",
" 44444 = OOOOOO@@##%>>,11.- 44444 ",
" 444444   OOOOOOO@@#%%>1   444444 ",
" 44444444 OOOOOO@@#%%>,1 44444444 ",
" 4444444 +OOOOO@##%>>,,,1o4444444 ",
" 444444o                  o444444 ",
"                                  "
};
