/* XPM */
static char *result[] = {
/* columns rows colors chars-per-pixel */
"34 34 8 1 ",
"  c black",
". c #421B00",
"X c #431B00",
"o c #572400",
"O c #582400",
"+ c #6F2E00",
"@ c #702E00",
"# c white",
/* pixels */
"                                  ",
" ############        ############ ",
" #########   oooooooo   ######### ",
" ######## Ooo@@@@@@@@ooo ######## ",
" ######  o@@@@@@@@@@@@@@o  ###### ",
" ##### oo@@@@@......@@@@@OO ##### ",
" #### O@@@@...@@@@@@...@@@@o #### ",
" ### o@@@@..@@@@@@@@@@..@@@@O ### ",
" ### O@@X.@@@@@@@@@@@@@+..@@O ### ",
" ## O@@@.+@@@@@@@@@@@@@@+.@@@O ## ",
" # o@@@.+@@@@@@@@@@@@@@@@@.@@@O # ",
" # o@@X.@@@@@@@@..@@@@@@@@.X@@o # ",
" # o@@.@@..@@@@....@@@@..@@.@@o # ",
"  o@@@.@X...@@@....@@@...X@.@@@O  ",
"  o@@.+@....@@@+..+@@@....@@.@@o  ",
"  o@@.@@@..+@@@@..@@@@+..@@@.@@o  ",
"  o@@.@@@@...@@X..X@@...@@@@.@@O  ",
"  o@@.@@@@...X......X...@@@@.@@o  ",
"  o@@.@@@@@............@@@@@.@@o  ",
"  o@@.@@@@+............+@@@@.@@o  ",
"  o@@@.@@@@@..........@@@@@.@@@o  ",
" # o@@.@@@@@@@@@@@@@@@@@@@@.@@o # ",
" # o@@X.@@@............@@@.X@@o # ",
" # o@@@.@@@............@@+.@@@O # ",
" ## O@@@.+@@@@@@@@@@@@@@@.@@@O ## ",
" ### O@@..+@@@@@@@@@@@@@..@@O ### ",
" ### O@@@@..@@@@@@@@@@..@@@@O ### ",
" #### o@@@@...+@@@@@...@@@@o #### ",
" ##### oo@@@@@......@@@@@OO ##### ",
" ######  O@@@@@@@@@@@@@@O  ###### ",
" ######## OoO@@@@@@@@ooo ######## ",
" #########   Oooooooo   ######### ",
" ############        ############ ",
"                                  "
};
