/* XPM */
static char *result[] = {
/* columns rows colors chars-per-pixel */
"34 34 22 1 ",
"  c black",
". c #010101",
"X c #020202",
"o c gray10",
"O c #1E1E1E",
"+ c gray15",
"@ c gray16",
"# c gray19",
"$ c #313131",
"% c #421B00",
"& c #431B00",
"* c #572400",
"= c #582400",
"- c #6F2E00",
"; c #702E00",
": c #4C4C4C",
"> c #585858",
", c gray35",
"< c #5A5A5A",
"1 c gray39",
"2 c #646464",
"3 c white",
/* pixels */
"                                  ",
" 333333333333        333333333333 ",
" 333333333   ********   333333333 ",
" 33333333 =**;;;;;;;;*** 33333333 ",
" 333333  *;;;;;;;;;;;;;;*  333333 ",
" 33333 **;;;;;%%%%%%;;;;;== 33333 ",
" 3333 =;;;;%%%;;;;;;%%%;;;;* 3333 ",
" 333 *;;;;%%;;;;;;;;;;%%;;;;= 333 ",
" 333 =;;&%;;;;;.   ;;;;-%%;;= 333 ",
" 33 =;;;%-;;;;X+@#, ;;;;-%;;;= 33 ",
" 3 *;;;%-;;;;XO@#:22.;;;;;%;;;= 3 ",
" 3 *;;&%;;;;; O#:,22 ;;;;;%&;;* 3 ",
" 3 *;;%;;%%;; O#:,,2 ;;%%;;%;;* 3 ",
"  *;;;%;&%%%;.O@#:,< ;%%%&;%;;;=  ",
"  *;;%-;%%%%;; O@$>X;;%%%%;;%;;*  ",
"  *;;%;;;%%-;;;    ;;;-%%;;;%;;*  ",
"  *;;%;;;;%%%.XO@#> X%%%;;;;%;;=  ",
"  *;;%;;;;%%%&    X.&%%%;;;;%;;*  ",
"  *;;%;;;;;%%%% :, %%%%;;;;;%;;*  ",
"  *;;%;;;;-%%%% :, %%%%-;;;;%;;*  ",
"  *;;;%;;;;;%% @#,2 %%;;;;;%;;;*  ",
" 3 *;;%;;;;;;; @#:, ;;;;;;;%;;* 3 ",
" 3 *;;&%;;;%% +@#:,1.%%;;;%&;;* 3 ",
" 3 *;;;%;;;%% ++@#,2 %%;;-%;;;= 3 ",
" 33 =;;;%-;; O++@#:,2 ;;;%;;;= 33 ",
" 333 =;;%%-; oO+@#:,2 ;;%%;;= 333 ",
" 333 =;;;;%% oO+@#:,2 %%;;;;= 333 ",
" 3333 *X.                 X* 3333 ",
" 33333 *XooOOOOO+@$:,,222.= 33333 ",
" 333333   oooO+++++@$:,<   333333 ",
" 33333333 ooOOO+++@#:,,, 33333333 ",
" 3333333.ooOOOOO+@#:,,,,, 3333333 ",
" 333333X                   333333 ",
"                                  "
};
