/* XPM */
static char *result[] = {
/* columns rows colors chars-per-pixel */
"34 34 19 1 ",
"  c black",
". c #010000",
"X c #252525",
"o c #2F2F2F",
"O c #393939",
"+ c #3A3A3A",
"@ c gray24",
"# c #3E3E3E",
"$ c #421B00",
"% c #431B00",
"& c #572400",
"* c #582400",
"= c #6F2E00",
"- c #702E00",
"; c #4E4E4E",
": c #5B5B5B",
"> c gray36",
", c gray40",
"< c #676767",
/* pixels */
"                                  ",
" ++++++++++++        ++++++++++++ ",
" +++++++++   &&.@>.&&   +++++++++ ",
" ++++++++ *&&- XO:< -&&& ++++++++ ",
" ++++++  &---- Xo@: ----&  ++++++ ",
" +++++ &&-----$ o# $-----** +++++ ",
" ++++ *----$$$--..--$$$----& ++++ ",
" +++ &----$     o@     $----* +++ ",
" +++ *--%$  XXooO@#;:, .$$--* +++ ",
" ++ *---$=--          --=$---* ++ ",
" + &---$=--- XXoo@;:: ----$---* + ",
" + &--%$---- XXoO@;:, ----$%--& + ",
" + &--$--$$-.XooO;::,.-$$--$--& + ",
"  &---$-%$$$- XO#;:, -$$$%-$---*  ",
"  &--$=-$$$$-.XoO;:, -$$$$--$--&  ",
"  &--$---$$=--.     --=$$---$--&  ",
"  &--$----$$$-- X@ --$$$----$--*  ",
"  &--$----$$$%$ oO $%$$$----$--&  ",
"  &--$-----$$$      $$$-----$--&  ",
"  &--$----=$$$ Xo@; $$$=----$--&  ",
"  &---$-----$$ Xo@, $$-----$---&  ",
" + &--$------- oO;, -------$--& + ",
" + &--%$---$$ Xoo@;, $$---$%--& + ",
" + &---$---            --=$---* + ",
" ++ *---$=--.XooO@@;: ---$---* ++ ",
" +++ *--$$  XXoO@;;::, .$$--* +++ ",
" +++ *---- XXoooO@;;::, ----* +++ ",
" ++++ &.                .  & ++++ ",
" +++++ & XXXXXXXoOO@@;;:,.* +++++ ",
" ++++++   XXXXXooooO@@@;   ++++++ ",
" ++++++++ XXXXooooO@@@;: ++++++++ ",
" +++++++  XXXXXXoOO@;;::, +++++++ ",
" ++++++                    ++++++ ",
"                                  "
};
