/* XPM */
static char *result[] = {
/* columns rows colors chars-per-pixel */
"34 34 19 1 ",
"  c black",
". c #010000",
"X c #010101",
"o c gray10",
"O c #1B1B1B",
"+ c #232323",
"@ c gray15",
"# c #2D2D2D",
"$ c #313131",
"% c #3A3A3A",
"& c #5B2100",
"* c #5C2100",
"= c #742B00",
"- c #752B00",
"; c gray30",
": c #4E4E4E",
"> c #585858",
", c #5A5A5A",
"< c #656565",
/* pixels */
"                                  ",
" >>>>>>>>>>>>        >>>>>>>>>>>> ",
" >>>>>>>>>   &&&&&&&&   >>>>>>>>> ",
" >>>>>>>  *&  --  -- .&&  >>>>>>> ",
" >>>>>>   --  --  --  --   >>>>>> ",
" >>>>> & o  o+  #$  $;  < * >>>>> ",
" >>>> *- ooooo+@@#$$;;,<<.-& >>>> ",
" >>> &---               .---* >>> ",
" >>> *--%% oooo+@##$;,<.%%--* >>> ",
" >> *---%=              =%---* >> ",
" > &---%= oooo+@#$;;;,,< -%---* > ",
" > &--%%-%              %-%%--& > ",
" > &--%-%-- oooo@###;, --%-%--& > ",
"  &---%-%-- ooo+@#$;,< --%-%---*  ",
"  &--%=%---% o+@#$;,, %---%-%--&  ",
"  &--%-%--%% o+@#$;,< %%--%-%--&  ",
"  &--%-%--%% o+@$;;,< %%--%-%--*  ",
"  &--%-%--%%- +@$;,< -%%--%-%--&  ",
"  &--%-%--%%- +@$;,< -%%--%-%--&  ",
"  &--%-%---%% +@$;,< %%---%-%--&  ",
"  &---%-%--% o+@$;,<< %--%-%---&  ",
" > &--%-%--- o+@$;;,< ---%-%--& > ",
" > &--%%-%-.oo+@#$;,<< -%-%%--& > ",
" > &---%-%- oo+@#$;;,< -%=%---* > ",
" >> *---%=% ooo@##$;,, %-%---* >> ",
" >>> *--%% oooo+@#$$;,< %%--* >>> ",
" >>> *---.oooooo+@#$$;,< ---* >>> ",
" >>>> & .                  & >>>> ",
" >>>>> & ooooooo+@@#$;:,< * >>>>> ",
" >>>>>>   ooooooOo+@@#$,   >>>>>> ",
" >>>>>>>> ooooooo+@@#$,, >>>>>>>> ",
" >>>>>>>XOoooooo+@@#$,;,< >>>>>>> ",
" >>>>>>                    >>>>>> ",
"                                  "
};
