/* XPM */
static char *result[] = {
/* columns rows colors chars-per-pixel */
"34 34 21 1 ",
"  c black",
". c #010000",
"X c #010101",
"o c gray12",
"O c #202020",
"+ c gray15",
"@ c #2A2A2A",
"# c #2D2D2D",
"$ c #313131",
"% c #3A3A3A",
"& c #5B2100",
"* c #5C2100",
"= c #742B00",
"- c #752B00",
"; c gray30",
": c #585858",
"> c #5A5A5A",
", c #5B5B5B",
"< c #656565",
"1 c gray40",
"2 c #676767",
/* pixels */
"                                  ",
" :::::::             :::::::::::: ",
" :::::::: o;>. &&&&&&   ::::::::: ",
" ::::::::  @;><   ---&&& :::::::: ",
" ::::::   +$;;;,>1  ----&  :::::: ",
" :::::  ++;;;;;>>>>< ----** ::::: ",
" ::::  +$;;>>;;;;;>>< %----& :::: ",
" :::  o+;;;>>;$;;;;;>< %----* ::: ",
" ::: o+;;$$;>;+$$;;;;<< %%--* ::: ",
" :: o$;++@@$;; o+$;;;;<< %---* :: ",
" : o+; o+@$;; - o+@$$;;<<.%---* : ",
" : +$ % @$;;.%%% o+@$$;>< %%--& : ",
" :   - +$   %%%- o+@$;;;<< %--& : ",
"  &-- o# --%%-- o+@$$;;>>< %---*  ",
"  &-- . ---%%-- o@@$;;;><< -%--&  ",
"  &--%-%--%%-- o+@$;;;>><< -%--&  ",
"  &--%-%--%%- oo@$;;;;><<2 -%--*  ",
"  &--%-%--%% oo@$;;;>>><1 %-%--&  ",
"  &--%-%--% oo+@$;;>>>><2.%-%--&  ",
"  &--%-%--.oo+@$;;;>>><<.-%-%--&  ",
"  &---%-%- o+@@$;;>>>><<.%-%---&  ",
" : &--%-% oo+@$;;>>><<<.-%-%--& : ",
" : &--%%- oo+@$;;>><<<< %-%%--& : ",
" : &---%-% o+@$;;>><<< -%=%---* : ",
" :: *---%= oo@$$;>><<< %-%---* :: ",
" ::: *--%%= o+@$$;>>< --%%--* ::: ",
" ::: *----%  o+@$;>>> %%----* ::: ",
" :::: &                    & :::: ",
" ::::: & oooooo++@@$;;><<.* ::::: ",
" ::::::   ooooooo++@$$;<   :::::: ",
" :::::::: oooooo++@$$;>< :::::::: ",
" ::::::: Oooooo+@@$;;>>><X::::::: ",
" ::::::X                  X:::::: ",
"                                  "
};
