/* XPM */
static char *result[] = {
/* columns rows colors chars-per-pixel */
"34 34 20 1 ",
"  c black",
". c #010101",
"X c #020202",
"o c gray10",
"O c #1E1E1E",
"+ c gray15",
"@ c gray16",
"# c gray19",
"$ c #313131",
"% c #3A3A3A",
"& c #5B2100",
"* c #5C2100",
"= c #742B00",
"- c #752B00",
"; c #4C4C4C",
": c #585858",
"> c gray35",
", c #5A5A5A",
"< c gray39",
"1 c #646464",
/* pixels */
"                                  ",
" ::::::::::::        :::::::::::: ",
" :::::::::   &&&&&&&&   ::::::::: ",
" :::::::: *&&--------&&& :::::::: ",
" ::::::  &--------------&  :::::: ",
" ::::: &&-----%%%%%%-----** ::::: ",
" :::: *----%%%------%%%----& :::: ",
" ::: &----%%--%%%%%%--%%----* ::: ",
" ::: *--%%--%%-.   -%%-=%%--* ::: ",
" :: *---%=%%--X+@#> --%%=%---* :: ",
" : &---%=%---XO@#;11.---%-%---* : ",
" : &--%%-%--- O#;>11 ---%-%%--& : ",
" : &--%-%---% O#;>>1 %---%-%--& : ",
"  &---%-%--%%.O@#;>, %%--%-%---*  ",
"  &--%=%---%%- O@$:X-%%---%-%--&  ",
"  &--%-%--%%---    ---%%--%-%--&  ",
"  &--%-%--%%-.XO@#: X-%%--%-%--*  ",
"  &--%-%--%%--    X.--%%--%-%--&  ",
"  &--%-%--%%--- ;> =--%%--%-%--&  ",
"  &--%-%---%%-- ;> --%%---%-%--&  ",
"  &---%-%--%%- @#>1 -%%--%-%---&  ",
" : &--%-%---%% @#;> %%---%-%--& : ",
" : &--%%-%--- +@#;><.---%-%%--& : ",
" : &---%-%--- ++@#>1 ---%=%---* : ",
" :: *---%=%% O++@#;>1 %%-%---* :: ",
" ::: *--%%=- oO+@#;>1 --%%--* ::: ",
" ::: *----%% oO+@#;>1 %%----* ::: ",
" :::: &X.                 X& :::: ",
" ::::: &XooOOOOO+@$;>>111.* ::::: ",
" ::::::   oooO+++++@$;>,   :::::: ",
" :::::::: ooOOO+++@#;>>> :::::::: ",
" :::::::.ooOOOOO+@#;>>>>> ::::::: ",
" ::::::X                   :::::: ",
"                                  "
};
