/* XPM */
static char *result[] = {
/* columns rows colors chars-per-pixel */
"34 34 22 1 ",
"  c black",
". c #010101",
"X c #020202",
"o c #002C7C",
"O c #444444",
"+ c gray27",
"@ c #4E4E4E",
"# c gray31",
"$ c gray39",
"% c #646464",
"& c gray42",
"* c #6C6C6C",
"= c #7E7E7E",
"- c gray50",
"; c #003491",
": c #003492",
"> c gray77",
", c #C6C6C6",
"< c #E2E2E2",
"1 c gray89",
"2 c #E4E4E4",
"3 c white",
/* pixels */
"                                  ",
" 333333333333        333333333333 ",
" 333333333   oooooooo   333333333 ",
" 33333333 ooo::::::::ooo 33333333 ",
" 333333  o::::::::::::::o  333333 ",
" 33333 oo::::::::::::::::oo 33333 ",
" 3333 o::::::::::::::::::::o 3333 ",
" 333 o;:::::::::::::::::::::o 333 ",
" 333 o:::::::::.   :::::::::o 333 ",
" 33 o:::::::::X%*=1 :::::::::o 33 ",
" 3 o:::::::::X@*=,33.:::::::::o 3 ",
" 3 o::::::::: #=,233 :::::::::o 3 ",
" 3 o::::::::: #=,223 :::::::::o 3 ",
"  o::::::::::.#*=,22 ::::::::::o  ",
"  o::::::::::: #*-<X:::::::::::o  ",
"  o::::::::::::    ::::::::::::o  ",
"  o::::::::::.X@*=< X::::::::::o  ",
"  o:::::::::::    X.:::::::::::o  ",
"  o:::::::::::: ,2 ::::::::::::o  ",
"  o:::::::::::: ,2 ::::::::::::o  ",
"  o::::::::::: &=23 :::::::::::o  ",
" 3 o:::::::::: *=,2 ::::::::::o 3 ",
" 3 o::::::::: %*=,23.:::::::::o 3 ",
" 3 o;:::::::: $$*=23 :::::::::o 3 ",
" 33 o::::::: #$$*=,23 :::::::o 33 ",
" 333 o;::::: +#$*=,23 ::::::o 333 ",
" 333 o;::::: +#$*=>23 ::::::o 333 ",
" 3333 oX.                 Xo 3333 ",
" 33333 oXO+#####%*-,22333.o 33333 ",
" 333333   +++#$$$$%*-,22   333333 ",
" 33333333 ++###$$%*=,222 33333333 ",
" 3333333.++#####$*=,22221 3333333 ",
" 333333X                   333333 ",
"                                  "
};
