/* XPM */
static char *result[] = {
/* columns rows colors chars-per-pixel */
"34 34 26 1 ",
"  c black",
". c #010101",
"X c #020202",
"o c #3A3A3A",
"O c #5B2100",
"+ c #5C2100",
"@ c #742B00",
"# c #752B00",
"$ c #444444",
"% c gray27",
"& c #4E4E4E",
"* c gray31",
"= c #585858",
"- c gray39",
"; c #646464",
": c gray42",
"> c #6C6C6C",
", c #7E7E7E",
"< c gray50",
"1 c #C3C3C3",
"2 c gray77",
"3 c #C6C6C6",
"4 c #E2E2E2",
"5 c gray89",
"6 c #E4E4E4",
"7 c white",
/* pixels */
"                                  ",
" ============        ============ ",
" =========   OOOOOOOO   ========= ",
" ======== +OO########OOO ======== ",
" ======  O##############O  ====== ",
" ===== OO#####oooooo#####++ ===== ",
" ==== +####ooo######ooo####O ==== ",
" === O####oo##oooooo##oo####+ === ",
" === +##oo##oo=.   =oo#@oo##+ === ",
" == +###o@oo#=1=>,=1=#oo@o###+ == ",
" = O###o@o##=1 1==1 1=##o#o###+ = ",
" = O##oo#o###=1=36=1=###o#oo##O = ",
" = O##o#o###o =,366= o###o#o##O = ",
"  O###o#o##oo.*>,366 oo##o#o###+  ",
"  O##o@o###oo# *><4X#oo###o#o##O  ",
"  O##o#o##oo###    ###oo##o#o##O  ",
"  O##o#o##oo#.X&>,4 X#oo##o#o##+  ",
"  O##o#o##oo##    X.##oo##o#o##O  ",
"  O##o#o##oo### 36 @##oo##o#o##O  ",
"  O##o#o###oo## 36 ##oo###o#o##O  ",
"  O###o#o##oo# :,67 #oo##o#o###O  ",
" = O##o#o###oo >,36 oo###o#o##O = ",
" = O##oo#o### ;>,367.###o#oo##O = ",
" = O###o#o### -->,67 ###o@o###+ = ",
" == +###o@oo *-->,367 oo#o###+ == ",
" === +##oo@# %*->,367 ##oo##+ === ",
" === +####oo %*->,267 oo####+ === ",
" ==== OX.                 XO ==== ",
" ===== OX$%*****;><366777.+ ===== ",
" ======   %%%*----;><366   ====== ",
" ======== %%***--;>,3666 ======== ",
" =======.%%*****->,366665 ======= ",
" ======X                   ====== ",
"                                  "
};
