/* XPM */
static char *result[] = {
/* columns rows colors chars-per-pixel */
"34 34 25 1 ",
"  c black",
". c #010101",
"X c #020202",
"o c #3A3A3A",
"O c #5B2100",
"+ c #5C2100",
"@ c #742B00",
"# c #752B00",
"$ c #444444",
"% c gray27",
"& c #4E4E4E",
"* c gray31",
"= c #585858",
"- c gray39",
"; c #646464",
": c gray42",
"> c #6C6C6C",
", c #7E7E7E",
"< c gray50",
"1 c gray77",
"2 c #C6C6C6",
"3 c #E2E2E2",
"4 c gray89",
"5 c #E4E4E4",
"6 c white",
/* pixels */
"                                  ",
" ============        ============ ",
" =========   OOOOOOOO   ========= ",
" ======== +OO########OOO ======== ",
" ======  O##############O  ====== ",
" ===== OO#####oooooo#####++ ===== ",
" ==== +####ooo######ooo####O ==== ",
" === O####oo##oooooo##oo####+ === ",
" === +##oo##oo#.   #oo#@oo##+ === ",
" == +###o@oo##X;>,4 ##oo@o###+ == ",
" = O###o@o###X&>,266.###o#o###+ = ",
" = O##oo#o### *,2566 ###o#oo##O = ",
" = O##o#o###o *,2556 o###o#o##O = ",
"  O###o#o##oo.*>,255 oo##o#o###+  ",
"  O##o@o###oo# *><3X#oo###o#o##O  ",
"  O##o#o##oo###    ###oo##o#o##O  ",
"  O##o#o##oo#.X&>,3 X#oo##o#o##+  ",
"  O##o#o##oo##    X.##oo##o#o##O  ",
"  O##o#o##oo### 25 @##oo##o#o##O  ",
"  O##o#o###oo## 25 ##oo###o#o##O  ",
"  O###o#o##oo# :,56 #oo##o#o###O  ",
" = O##o#o###oo >,25 oo###o#o##O = ",
" = O##oo#o### ;>,256.###o#oo##O = ",
" = O###o#o### -->,56 ###o@o###+ = ",
" == +###o@oo *-->,256 oo#o###+ == ",
" === +##oo@# %*->,256 ##oo##+ === ",
" === +####oo %*->,156 oo####+ === ",
" ==== OX.                 XO ==== ",
" ===== OX$%*****;><255666.+ ===== ",
" ======   %%%*----;><255   ====== ",
" ======== %%***--;>,2555 ======== ",
" =======.%%*****->,255554 ======= ",
" ======X                   ====== ",
"                                  "
};
