/* XPM */
static char *result[] = {
/* columns rows colors chars-per-pixel */
"34 34 23 1 ",
"  c black",
". c #010101",
"X c #020202",
"o c #3A3A3A",
"O c #002C7C",
"+ c #444444",
"@ c gray27",
"# c #4E4E4E",
"$ c gray31",
"% c gray39",
"& c #646464",
"* c gray42",
"= c #6C6C6C",
"- c #7E7E7E",
"; c gray50",
": c #003491",
"> c #003492",
", c gray77",
"< c #C6C6C6",
"1 c #E2E2E2",
"2 c gray89",
"3 c #E4E4E4",
"4 c white",
/* pixels */
"                                  ",
" oooooooooooo        oooooooooooo ",
" ooooooooo   OOOOOOOO   ooooooooo ",
" oooooooo OOO>>>>>>>>OOO oooooooo ",
" oooooo  O>>>>>>>>>>>>>>O  oooooo ",
" ooooo OO>>>>>>>>>>>>>>>>OO ooooo ",
" oooo O>>>>>>>>>>>>>>>>>>>>O oooo ",
" ooo O:>>>>>>>>>>>>>>>>>>>>>O ooo ",
" ooo O>>>>>>>>>.   >>>>>>>>>O ooo ",
" oo O>>>>>>>>>X&=-2 >>>>>>>>>O oo ",
" o O>>>>>>>>>X#=-<44.>>>>>>>>>O o ",
" o O>>>>>>>>> $-<344 >>>>>>>>>O o ",
" o O>>>>>>>>> $-<334 >>>>>>>>>O o ",
"  O>>>>>>>>>>.$=-<33 >>>>>>>>>>O  ",
"  O>>>>>>>>>>> $=;1X>>>>>>>>>>>O  ",
"  O>>>>>>>>>>>>    >>>>>>>>>>>>O  ",
"  O>>>>>>>>>>.X#=-1 X>>>>>>>>>>O  ",
"  O>>>>>>>>>>>    X.>>>>>>>>>>>O  ",
"  O>>>>>>>>>>>> <3 >>>>>>>>>>>>O  ",
"  O>>>>>>>>>>>> <3 >>>>>>>>>>>>O  ",
"  O>>>>>>>>>>> *-34 >>>>>>>>>>>O  ",
" o O>>>>>>>>>> =-<3 >>>>>>>>>>O o ",
" o O>>>>>>>>> &=-<34.>>>>>>>>>O o ",
" o O:>>>>>>>> %%=-34 >>>>>>>>>O o ",
" oo O>>>>>>> $%%=-<34 >>>>>>>O oo ",
" ooo O:>>>>> @$%=-<34 >>>>>>O ooo ",
" ooo O:>>>>> @$%=-,34 >>>>>>O ooo ",
" oooo OX.                 XO oooo ",
" ooooo OX+@$$$$$&=;<33444.O ooooo ",
" oooooo   @@@$%%%%&=;<33   oooooo ",
" oooooooo @@$$$%%&=-<333 oooooooo ",
" ooooooo.@@$$$$$%=-<33332 ooooooo ",
" ooooooX                   oooooo ",
"                                  "
};
