/* XPM */
static char *result[] = {
/* columns rows colors chars-per-pixel */
"34 34 19 1 ",
"  c black",
". c #010000",
"X c #010101",
"o c #252525",
"O c #2F2F2F",
"+ c #393939",
"@ c #3A3A3A",
"# c gray24",
"$ c #3E3E3E",
"% c #5B2100",
"& c #5C2100",
"* c #742B00",
"= c #752B00",
"- c #4E4E4E",
"; c #585858",
": c #5B5B5B",
"> c gray36",
", c gray40",
"< c #676767",
/* pixels */
"                                  ",
" ;;;;;;;;;;;;        ;;;;;;;;;;;; ",
" ;;;;;;;;;   %%.#>.%%   ;;;;;;;;; ",
" ;;;;;;;; &%%= o+:< =%%% ;;;;;;;; ",
" ;;;;;;  %==== oO#: ====%  ;;;;;; ",
" ;;;;; %%=====@ O$ @=====&& ;;;;; ",
" ;;;; &====@@@==..==@@@====% ;;;; ",
" ;;; %====@     O#     @====& ;;; ",
" ;;; &==@@  ooOO+#$-:, .@@==& ;;; ",
" ;; &===@*@@          @@*@===& ;; ",
" ; %===@*@== ooOO#-:: ==@=@===& ; ",
" ; %==@@=@== ooO+#-:, ==@=@@==% ; ",
" ; %==@=@=== oOO+-::, ===@=@==% ; ",
"  %===@=@==@@ o+$-:, @@==@=@===&  ",
"  %==@*@===@@.oO+-:, @@===@=@==%  ",
"  %==@=@==@@==.     ==@@==@=@==%  ",
"  %==@=@==@@=== o# ===@@==@=@==&  ",
"  %==@=@==@@=== O+ ===@@==@=@==%  ",
"  %==@=@==@@==      ==@@==@=@==%  ",
"  %==@=@===@@=.oO#- =@@===@=@==%  ",
"  %===@=@==@@= oO#,.=@@==@=@===%  ",
" ; %==@=@===@@ O+-, @@===@=@==% ; ",
" ; %==@@=@=== oOO#-, ===@=@@==% ; ",
" ; %===@=@=           .=@*@===& ; ",
" ;; &===@*@@.oOO+##-: @@=@===& ;; ",
" ;;; &==@@  ooO+#--::, .@@==& ;;; ",
" ;;; &==== ooOOO+#--::, ====& ;;; ",
" ;;;; %.                .  % ;;;; ",
" ;;;;; % oooooooO++##--:,.& ;;;;; ",
" ;;;;;;   oooooOOOO+###-   ;;;;;; ",
" ;;;;;;;; ooooOOOO+###-: ;;;;;;;; ",
" ;;;;;;;XXooooooO++#--::,X;;;;;;; ",
" ;;;;;;                    ;;;;;; ",
"                                  "
};
