/* XPM */
static char *result[] = {
/* columns rows colors chars-per-pixel */
"34 34 7 1 ",
"  c black",
". c #3A3A3A",
"X c #5B2100",
"o c #5C2100",
"O c #742B00",
"+ c #752B00",
"@ c #585858",
/* pixels */
"                                  ",
" @@@@@@@@@@@@        @@@@@@@@@@@@ ",
" @@@@@@@@@   XXXXXXXX   @@@@@@@@@ ",
" @@@@@@@@ oXX++++++++XXX @@@@@@@@ ",
" @@@@@@  X++++++++++++++X  @@@@@@ ",
" @@@@@ XX+++++......+++++oo @@@@@ ",
" @@@@ o++++...++++++...++++X @@@@ ",
" @@@ X++++..++......++..++++o @@@ ",
" @@@ o++..++..++++++..+O..++o @@@ ",
" @@ o+++.O..++++++++++..O.+++o @@ ",
" @ X+++.O.+++++....+++++.+.+++o @ ",
" @ X++..+.+++........+++.+..++X @ ",
" @ X++.+.+++...++++...+++.+.++X @ ",
"  X+++.+.++..++++++++..++.+.+++o  ",
"  X++.O.+++..++++++++..+++.+.++X  ",
"  X++.+.++..++++++++++..++.+.++X  ",
"  X++.+.++..++++++++++..++.+.++o  ",
"  X++.+.++..++++++++++..++.+.++X  ",
"  X++.+.++..+++++++O++..++.+.++X  ",
"  X++.+.+++..+++++O++..+++.+.++X  ",
"  X+++.+.++..++++++++..++.+.+++X  ",
" @ X++.+.+++...++++...+++.+.++X @ ",
" @ X++..+.+++........+++.+..++X @ ",
" @ X+++.+.+++++....+++++.O.+++o @ ",
" @@ o+++.O..++++++++++..+.+++o @@ ",
" @@@ o++..O+..++++++..++..++o @@@ ",
" @@@ o++++..++......++..++++o @@@ ",
" @@@@ X++++...O+++++...++++X @@@@ ",
" @@@@@ XX+++++......+++++oo @@@@@ ",
" @@@@@@  o++++++++++++++o  @@@@@@ ",
" @@@@@@@@ oXo++++++++XXX @@@@@@@@ ",
" @@@@@@@@@   oXXXXXXX   @@@@@@@@@ ",
" @@@@@@@@@@@@        @@@@@@@@@@@@ ",
"                                  "
};
