/* XPM */
static char *result[] = {
/* columns rows colors chars-per-pixel */
"34 34 15 1 ",
"  c black",
". c #010101",
"X c #020202",
"o c gray12",
"O c gray17",
"+ c #323232",
"@ c gray20",
"# c #373737",
"$ c gray22",
"% c gray30",
"& c #5A5A5A",
"* c #5B5B5B",
"= c #646464",
"- c #656565",
"; c white",
/* pixels */
"                                  ",
" ;;;;;;;;;;;;;;; .;;;;;;;;;;;;;;; ",
" ;;;;;;;;;;;;;;.+&X;;;;;;;;;;;;;; ",
" ;;;;;;;;;;;;;;;XX;;;;;;;;;;;;;;; ",
" ;;;;;;;;;;;;.;;  ;;.;;;;;;;;;;;; ",
" ;;;;;;;;;;; @ .o*  - ;;;;;;;;;;; ",
" ;;;;;;;;;;; o  O$  &.;;;;;;;;;;; ",
" ;;;;;;;;;;;;X;; .;; ;;;;;;;;;;;; ",
" ;;;;;;;;;;;;;;; .;;;;;;;;;;;;;;; ",
" ;;;;;;;;;;;;;;.O$X;;;;;;;;;;;;;; ",
" ;;;;;;;;;;   X    .  .;;;;;;;;;; ",
" ;;;;;;;;;;; ooO+#*&=X;;;;;;;;;;; ",
" ;;;;;;;;;;..         X;;;;;;;;;; ",
" ;;;;;;;;;;;; oO#%&=.;;;;;;;;;;;; ",
" ;;;;;;;;;;;;; ..  .;;;;;;;;;;;;; ",
" ;;;;;;;;;;;; oO+#&= ;;;;;;;;;;;; ",
" ;;;;;;;;;;. ooOO+#&-XX;;;;;;;;;; ",
" ;;;;;;;;;;;XXoo+#&-..;;;;;;;;;;; ",
" ;;;;;;;;;;;;;.    X;;;;;;;;;;;;; ",
" ;;;;;;;;;;;;; o+#%X;;;;;;;;;;;;; ",
" ;;;;;;;;;;;;;;  X.;;;;;;;;;;;;;; ",
" ;;;;;;;;;;;;;.oO#=.;;;;;;;;;;;;; ",
" ;;;;;;;;;;;;;.    .;;;;;;;;;;;;; ",
" ;;;;;;;;;;;..oO$%&&.X;;;;;;;;;;; ",
" ;;;;;;;;;; oooO+#%&&-X;;;;;;;;;; ",
" ;;;;;;;;; ooooOO+#%&&- ;;;;;;;;; ",
" ;;;;;;;;; oooooO+#%%&& ;;;;;;;;; ",
" ;;;;;;X                X X;;;;;; ",
" ;;;;;;;.oooooOOO+#%%&==- ;;;;;;; ",
" ;;;;;;;;.ooooooOO+##%&= ;;;;;;;; ",
" ;;;;;;;; oooooOO++#%&&&.;;;;;;;; ",
" ;;;;;;;.oooooOO+##%%&&&=.;;;;;;; ",
" ;;;;;;..                  ;;;;;; ",
"                                  "
};
