/* XPM */
static char *result[] = {
/* columns rows colors chars-per-pixel */
"34 34 18 1 ",
"  c black",
". c #010101",
"X c #020202",
"o c gray12",
"O c #202020",
"+ c gray15",
"@ c #2A2A2A",
"# c #2D2D2D",
"$ c #313131",
"% c gray30",
"& c #585858",
"* c #5A5A5A",
"= c #5B5B5B",
"- c #656565",
"; c gray40",
": c #676767",
"> c #C3C3C3",
", c white",
/* pixels */
"                                  ",
" ,,,,,,, .   ,,,,,,,,,,,,,,,,,,,, ",
" ,,,,,,,, o%*X ,,,,,,,,,,,,,,,,,, ",
" ,,,,,,,,& @%*-  .,,,,,,,,,,,,,,, ",
" ,,,,,,,& +$%%%=*;  ,,,,,,,,,,,,, ",
" ,,,,,,&>>%%%%%****- ,,,,,,,,,,,, ",
" ,,,,,&> >%**%%%%%**-.,,,,,,,,,,, ",
" ,,,, &&&&%**%$%%%%%*- ,,,,,,,,,, ",
" ,,, o+%%$$%*%+$$%%%%-- ,,,,,,,,, ",
" ,, o$%++@@$%% o+$%%%%-- ,,,,,,,, ",
" ,Xo+% o+@$%%., o+@$$%%--X,,,,,,, ",
" ,X+$ ,.@$%%X,,, o+@$$%*- ,,,,,,, ",
" ,,..,.+$  .,,,, o+@$%%%-- ,,,,,, ",
" ,,,, o# ,,,,,, o+@$$%%**- ,,,,,, ",
" ,,,, X.,,,,,,, o@@$%%%*-- ,,,,,, ",
" ,,,,,,,,,,,,, o+@$%%%**-- ,,,,,, ",
" ,,,,,,,,,,,, oo@$%%%%*--:X,,,,,, ",
" ,,,,,,,,,,, oo@$%%%***-; ,,,,,,, ",
" ,,,,,,,,,, oo+@$%%****-:X,,,,,,, ",
" ,,,,,,,,,Xoo+@$%%%***--X,,,,,,,, ",
" ,,,,,,,,, o+@@$%%****--X,,,,,,,, ",
" ,,,,,,,,.oo+@$%%***---X,,,,,,,,, ",
" ,,,,,,,,.oo+@$%%**---- ,,,,,,,,, ",
" ,,,,,,,,, o+@$%%**--- ,,,,,,,,,, ",
" ,,,,,,,,, oo@$$%**---X,,,,,,,,,, ",
" ,,,,,,,,,, o+@$$%**- ,,,,,,,,,,, ",
" ,,,,,,,,,,X o+@$%*** ,,,,,,,,,,, ",
" ,,,,,,                    ,,,,,, ",
" ,,,,,,, oooooo++@@$%%*--X,,,,,,, ",
" ,,,,,,,, ooooooo++@$$%- ,,,,,,,, ",
" ,,,,,,,,Xoooooo++@$$%*- ,,,,,,,, ",
" ,,,,,,, Oooooo+@@$%%***-X,,,,,,, ",
" ,,,,,,X                  X,,,,,, ",
"                                  "
};
