/* XPM */
static char *result[] = {
/* columns rows colors chars-per-pixel */
"34 34 16 1 ",
"  c black",
". c #010101",
"X c #020202",
"o c gray10",
"O c #1E1E1E",
"+ c gray15",
"@ c gray16",
"# c gray19",
"$ c #313131",
"% c #4C4C4C",
"& c #585858",
"* c gray35",
"= c #5A5A5A",
"- c gray39",
"; c #646464",
": c white",
/* pixels */
"                                  ",
" :::::::::::::::::::::::::::::::: ",
" :::::::::::::::::::::::::::::::: ",
" :::::::::::::::::::::::::::::::: ",
" :::::::::::::::::::::::::::::::: ",
" :::::::::::::::::::::::::::::::: ",
" :::::::::::::::::::::::::::::::: ",
" :::::::::::::::::::::::::::::::: ",
" ::::::::::::::.   :::::::::::::: ",
" :::::::::::::X+@#* ::::::::::::: ",
" ::::::::::::XO@#%;;.:::::::::::: ",
" :::::::::::: O#%*;; :::::::::::: ",
" :::::::::::: O#%**; :::::::::::: ",
" ::::::::::::.O@#%*= :::::::::::: ",
" ::::::::::::: O@$&X::::::::::::: ",
" ::::::::::::::    :::::::::::::: ",
" ::::::::::::.XO@#& X:::::::::::: ",
" :::::::::::::    X.::::::::::::: ",
" :::::::::::::: %* :::::::::::::: ",
" :::::::::::::: %* :::::::::::::: ",
" ::::::::::::: @#*; ::::::::::::: ",
" ::::::::::::: @#%* ::::::::::::: ",
" :::::::::::: +@#%*-.:::::::::::: ",
" :::::::::::: ++@#*; :::::::::::: ",
" ::::::::::: O++@#%*; ::::::::::: ",
" ::::::::::: oO+@#%*; ::::::::::: ",
" ::::::::::: oO+@#%*; ::::::::::: ",
" ::::::X.                 X:::::: ",
" :::::::XooOOOOO+@$%**;;;.::::::: ",
" :::::::: oooO+++++@$%*= :::::::: ",
" :::::::: ooOOO+++@#%*** :::::::: ",
" :::::::.ooOOOOO+@#%***** ::::::: ",
" ::::::X                   :::::: ",
"                                  "
};
