/* XPM */
static char *result[] = {
/* columns rows colors chars-per-pixel */
"34 34 10 1 ",
"  c black",
". c #010101",
"X c #020202",
"o c #505050",
"O c #6F6F6F",
"+ c gray51",
"@ c gray56",
"# c #C6C6C6",
"$ c #E4E4E4",
"% c white",
/* pixels */
"                                  ",
" %%%%%%%%%%%%%%% .%%%%%%%%%%%%%%% ",
" %%%%%%%%%%%%%%.+$X%%%%%%%%%%%%%% ",
" %%%%%%%%%%%%%%%XX%%%%%%%%%%%%%%% ",
" %%%%%%%%%%%%.%%  %%.%%%%%%%%%%%% ",
" %%%%%%%%%%% + .o$  % %%%%%%%%%%% ",
" %%%%%%%%%%% o  O@  $.%%%%%%%%%%% ",
" %%%%%%%%%%%%X%% .%% %%%%%%%%%%%% ",
" %%%%%%%%%%%%%%% .%%%%%%%%%%%%%%% ",
" %%%%%%%%%%%%%%.O@X%%%%%%%%%%%%%% ",
" %%%%%%%%%%   X    .  .%%%%%%%%%% ",
" %%%%%%%%%%% ooO+@$$%X%%%%%%%%%%% ",
" %%%%%%%%%%..         X%%%%%%%%%% ",
" %%%%%%%%%%%% oO@#$%.%%%%%%%%%%%% ",
" %%%%%%%%%%%%% XX  X%%%%%%%%%%%%% ",
" %%%%%%%%%%%% oO+@$% %%%%%%%%%%%% ",
" %%%%%%%%%%. ooOO+@$%XX%%%%%%%%%% ",
" %%%%%%%%%%%XXoo+@$%..%%%%%%%%%%% ",
" %%%%%%%%%%%%%.    X%%%%%%%%%%%%% ",
" %%%%%%%%%%%%% o+@#X%%%%%%%%%%%%% ",
" %%%%%%%%%%%%%%  X.%%%%%%%%%%%%%% ",
" %%%%%%%%%%%%%.oO@%.%%%%%%%%%%%%% ",
" %%%%%%%%%%%%%.    .%%%%%%%%%%%%% ",
" %%%%%%%%%%%..oO@#$$XX%%%%%%%%%%% ",
" %%%%%%%%%% oooO+@#$$%X%%%%%%%%%% ",
" %%%%%%%%% ooooOO+@#$$% %%%%%%%%% ",
" %%%%%%%%% oooooO+@##$$ %%%%%%%%% ",
" %%%%%%X               .X X%%%%%% ",
" %%%%%%%.oooooOOO+@##$%%% %%%%%%% ",
" %%%%%%%%.ooooooOO+@@#$% %%%%%%%% ",
" %%%%%%%%.oooooOO++@#$$$.%%%%%%%% ",
" %%%%%%%.oooooOO+@@##$$$%.%%%%%%% ",
" %%%%%%..      .           %%%%%% ",
"                                  "
};
