/* XPM */
static char *result[] = {
/* columns rows colors chars-per-pixel */
"34 34 20 1 ",
"  c black",
". c #010101",
"X c #020202",
"o c #3A3A3A",
"O c #444444",
"+ c gray27",
"@ c #4E4E4E",
"# c gray31",
"$ c gray39",
"% c #646464",
"& c gray42",
"* c #6C6C6C",
"= c #7E7E7E",
"- c gray50",
"; c gray77",
": c #C6C6C6",
"> c #E2E2E2",
", c gray89",
"< c #E4E4E4",
"1 c white",
/* pixels */
"                                  ",
" oooooooooooooooooooooooooooooooo ",
" oooooooooooooooooooooooooooooooo ",
" oooooooooooooooooooooooooooooooo ",
" oooooooooooooooooooooooooooooooo ",
" oooooooooooooooooooooooooooooooo ",
" oooooooooooooooooooooooooooooooo ",
" oooooooooooooooooooooooooooooooo ",
" oooooooooooooo.   oooooooooooooo ",
" oooooooooooooX%*=, ooooooooooooo ",
" ooooooooooooX@*=:11.oooooooooooo ",
" oooooooooooo #=:<11 oooooooooooo ",
" oooooooooooo #=:<<1 oooooooooooo ",
" oooooooooooo.#*=:<< oooooooooooo ",
" ooooooooooooo #*->Xooooooooooooo ",
" oooooooooooooo    oooooooooooooo ",
" oooooooooooo.X@*=> Xoooooooooooo ",
" ooooooooooooo    X.ooooooooooooo ",
" oooooooooooooo :< oooooooooooooo ",
" oooooooooooooo :< oooooooooooooo ",
" ooooooooooooo &=<1 ooooooooooooo ",
" ooooooooooooo *=:< ooooooooooooo ",
" oooooooooooo %*=:<1.oooooooooooo ",
" oooooooooooo $$*=<1 oooooooooooo ",
" ooooooooooo #$$*=:<1 ooooooooooo ",
" ooooooooooo +#$*=:<1 ooooooooooo ",
" ooooooooooo +#$*=;<1 ooooooooooo ",
" ooooooX.                 Xoooooo ",
" oooooooXO+#####%*-:<<111.ooooooo ",
" oooooooo +++#$$$$%*-:<< oooooooo ",
" oooooooo ++###$$%*=:<<< oooooooo ",
" ooooooo.++#####$*=:<<<<, ooooooo ",
" ooooooX                   oooooo ",
"                                  "
};
