/* XPM */
static char *result[] = {
/* columns rows colors chars-per-pixel */
"34 34 21 1 ",
"  c black",
". c #010101",
"X c #020202",
"o c #444444",
"O c gray27",
"+ c #4E4E4E",
"@ c gray31",
"# c #585858",
"$ c gray39",
"% c #646464",
"& c gray42",
"* c #6C6C6C",
"= c #7E7E7E",
"- c gray50",
"; c #C3C3C3",
": c gray77",
"> c #C6C6C6",
", c #E2E2E2",
"< c gray89",
"1 c #E4E4E4",
"2 c white",
/* pixels */
"                                  ",
" 22222222222222222222222222222222 ",
" 22222222222222222222222222222222 ",
" 22222222222222222222222222222222 ",
" 22222222222222222222222222222222 ",
" 22222222222222222222222222222222 ",
" 22222222222222222222222222222222 ",
" 22222222222222222222222222222222 ",
" 2222222222222#.   #2222222222222 ",
" 222222222222#;#*=#;#222222222222 ",
" 22222222222#; ;##; ;#22222222222 ",
" 222222222222#;#>1#;#222222222222 ",
" 222222222222 #=>11# 222222222222 ",
" 222222222222.@*=>11 222222222222 ",
" 2222222222222 @*-,X2222222222222 ",
" 22222222222222    22222222222222 ",
" 222222222222.X+*=, X222222222222 ",
" 2222222222222    X.2222222222222 ",
" 22222222222222 >1 22222222222222 ",
" 22222222222222 >1 22222222222222 ",
" 2222222222222 &=12 2222222222222 ",
" 2222222222222 *=>1 2222222222222 ",
" 222222222222 %*=>12.222222222222 ",
" 222222222222 $$*=12 222222222222 ",
" 22222222222 @$$*=>12 22222222222 ",
" 22222222222 O@$*=>12 22222222222 ",
" 22222222222 O@$*=:12 22222222222 ",
" 222222X.                 X222222 ",
" 2222222XoO@@@@@%*->11222.2222222 ",
" 22222222 OOO@$$$$%*->11 22222222 ",
" 22222222 OO@@@$$%*=>111 22222222 ",
" 2222222.OO@@@@@$*=>1111< 2222222 ",
" 222222X                   222222 ",
"                                  "
};
