/* XPM */
static char *result[] = {
/* columns rows colors chars-per-pixel */
"34 34 22 1 ",
"  c black",
". c #010101",
"X c #020202",
"o c #3A3A3A",
"O c #444444",
"+ c gray27",
"@ c #4E4E4E",
"# c gray31",
"$ c #585858",
"% c gray39",
"& c #646464",
"* c gray42",
"= c #6C6C6C",
"- c #7E7E7E",
"; c gray50",
": c #C3C3C3",
"> c gray77",
", c #C6C6C6",
"< c #E2E2E2",
"1 c gray89",
"2 c #E4E4E4",
"3 c white",
/* pixels */
"                                  ",
" oooooooooooooooooooooooooooooooo ",
" oooooooooooooooooooooooooooooooo ",
" oooooooooooooooooooooooooooooooo ",
" oooooooooooooooooooooooooooooooo ",
" oooooooooooooooooooooooooooooooo ",
" oooooooooooooooooooooooooooooooo ",
" oooooooooooooooooooooooooooooooo ",
" ooooooooooooo$.   $ooooooooooooo ",
" oooooooooooo$:$=-$:$oooooooooooo ",
" ooooooooooo$: :$$: :$ooooooooooo ",
" oooooooooooo$:$,2$:$oooooooooooo ",
" oooooooooooo $-,22$ oooooooooooo ",
" oooooooooooo.#=-,22 oooooooooooo ",
" ooooooooooooo #=;<Xooooooooooooo ",
" oooooooooooooo    oooooooooooooo ",
" oooooooooooo.X@=-< Xoooooooooooo ",
" ooooooooooooo    X.ooooooooooooo ",
" oooooooooooooo ,2 oooooooooooooo ",
" oooooooooooooo ,2 oooooooooooooo ",
" ooooooooooooo *-23 ooooooooooooo ",
" ooooooooooooo =-,2 ooooooooooooo ",
" oooooooooooo &=-,23.oooooooooooo ",
" oooooooooooo %%=-23 oooooooooooo ",
" ooooooooooo #%%=-,23 ooooooooooo ",
" ooooooooooo +#%=-,23 ooooooooooo ",
" ooooooooooo +#%=->23 ooooooooooo ",
" ooooooX.                 Xoooooo ",
" oooooooXO+#####&=;,22333.ooooooo ",
" oooooooo +++#%%%%&=;,22 oooooooo ",
" oooooooo ++###%%&=-,222 oooooooo ",
" ooooooo.++#####%=-,22221 ooooooo ",
" ooooooX                   oooooo ",
"                                  "
};
