/* XPM */
static char *result[] = {
/* columns rows colors chars-per-pixel */
"34 34 11 1 ",
"  c black",
". c #010101",
"X c #020202",
"o c #3A3A3A",
"O c #505050",
"+ c #6F6F6F",
"@ c gray51",
"# c gray56",
"$ c #C6C6C6",
"% c #E4E4E4",
"& c white",
/* pixels */
"                                  ",
" ooooooooooooooo .ooooooooooooooo ",
" oooooooooooooo.@%Xoooooooooooooo ",
" oooooooooooooooXXooooooooooooooo ",
" oooooooooooo.oo  oo.oooooooooooo ",
" ooooooooooo @ .O%  & ooooooooooo ",
" ooooooooooo O  +#  %.ooooooooooo ",
" ooooooooooooXoo .oo oooooooooooo ",
" ooooooooooooooo .ooooooooooooooo ",
" oooooooooooooo.+#Xoooooooooooooo ",
" oooooooooo   X    .  .oooooooooo ",
" ooooooooooo OO+@#%%&Xooooooooooo ",
" oooooooooo..         Xoooooooooo ",
" oooooooooooo O+#$%&.oooooooooooo ",
" ooooooooooooo XX  Xooooooooooooo ",
" oooooooooooo O+@#%& oooooooooooo ",
" oooooooooo. OO++@#%&XXoooooooooo ",
" oooooooooooXXOO@#%&..ooooooooooo ",
" ooooooooooooo.    Xooooooooooooo ",
" ooooooooooooo O@#$Xooooooooooooo ",
" oooooooooooooo  X.oooooooooooooo ",
" ooooooooooooo.O+#&.ooooooooooooo ",
" ooooooooooooo.    .ooooooooooooo ",
" ooooooooooo..O+#$%%XXooooooooooo ",
" oooooooooo OOO+@#$%%&Xoooooooooo ",
" ooooooooo OOOO++@#$%%& ooooooooo ",
" ooooooooo OOOOO+@#$$%% ooooooooo ",
" ooooooX               .X Xoooooo ",
" ooooooo.OOOOO+++@#$$%&&& ooooooo ",
" oooooooo.OOOOOO++@##$%& oooooooo ",
" oooooooo.OOOOO++@@#$%%%.oooooooo ",
" ooooooo.OOOOO++@##$$%%%&.ooooooo ",
" oooooo..      .           oooooo ",
"                                  "
};
