/* XPM */
static char *result[] = {
/* columns rows colors chars-per-pixel */
"34 34 19 1 ",
"  c black",
". c #010101",
"X c #020202",
"o c #444444",
"O c gray27",
"+ c #4E4E4E",
"@ c gray31",
"# c gray39",
"$ c #646464",
"% c gray42",
"& c #6C6C6C",
"* c #7E7E7E",
"= c gray50",
"- c gray77",
"; c #C6C6C6",
": c #E2E2E2",
"> c gray89",
", c #E4E4E4",
"< c white",
/* pixels */
"                                  ",
" <<<<<<<<<<<<<<<<<<<<<<<<<<<<<<<< ",
" <<<<<<<<<<<<<<<<<<<<<<<<<<<<<<<< ",
" <<<<<<<<<<<<<<<<<<<<<<<<<<<<<<<< ",
" <<<<<<<<<<<<<<<<<<<<<<<<<<<<<<<< ",
" <<<<<<<<<<<<<<<<<<<<<<<<<<<<<<<< ",
" <<<<<<<<<<<<<<<<<<<<<<<<<<<<<<<< ",
" <<<<<<<<<<<<<<<<<<<<<<<<<<<<<<<< ",
" <<<<<<<<<<<<<<.   <<<<<<<<<<<<<< ",
" <<<<<<<<<<<<<X$&*> <<<<<<<<<<<<< ",
" <<<<<<<<<<<<X+&*;<<.<<<<<<<<<<<< ",
" <<<<<<<<<<<< @*;,<< <<<<<<<<<<<< ",
" <<<<<<<<<<<< @*;,,< <<<<<<<<<<<< ",
" <<<<<<<<<<<<.@&*;,, <<<<<<<<<<<< ",
" <<<<<<<<<<<<< @&=:X<<<<<<<<<<<<< ",
" <<<<<<<<<<<<<<    <<<<<<<<<<<<<< ",
" <<<<<<<<<<<<.X+&*: X<<<<<<<<<<<< ",
" <<<<<<<<<<<<<    X.<<<<<<<<<<<<< ",
" <<<<<<<<<<<<<< ;, <<<<<<<<<<<<<< ",
" <<<<<<<<<<<<<< ;, <<<<<<<<<<<<<< ",
" <<<<<<<<<<<<< %*,< <<<<<<<<<<<<< ",
" <<<<<<<<<<<<< &*;, <<<<<<<<<<<<< ",
" <<<<<<<<<<<< $&*;,<.<<<<<<<<<<<< ",
" <<<<<<<<<<<< ##&*,< <<<<<<<<<<<< ",
" <<<<<<<<<<< @##&*;,< <<<<<<<<<<< ",
" <<<<<<<<<<< O@#&*;,< <<<<<<<<<<< ",
" <<<<<<<<<<< O@#&*-,< <<<<<<<<<<< ",
" <<<<<<X.                 X<<<<<< ",
" <<<<<<<XoO@@@@@$&=;,,<<<.<<<<<<< ",
" <<<<<<<< OOO@####$&=;,, <<<<<<<< ",
" <<<<<<<< OO@@@##$&*;,,, <<<<<<<< ",
" <<<<<<<.OO@@@@@#&*;,,,,> <<<<<<< ",
" <<<<<<X                   <<<<<< ",
"                                  "
};
