/* XPM */
static char *result[] = {
/* columns rows colors chars-per-pixel */
"34 34 14 1 ",
"  c black",
". c #010101",
"X c #020202",
"o c #252525",
"O c #2F2F2F",
"+ c #393939",
"@ c gray24",
"# c #3E3E3E",
"$ c #4E4E4E",
"% c #5B5B5B",
"& c gray36",
"* c gray40",
"= c #676767",
"- c white",
/* pixels */
"                                  ",
" ---------------..--------------- ",
" --------------X@&X-------------- ",
" -------------.o+%=.------------- ",
" -------------.oO@%.------------- ",
" --------------XO#X-------------- ",
" ---------------XX--------------- ",
" ----------X  . O@   . ---------- ",
" ---------  ooOO+@#$%*.X--------- ",
" -----------          ----------- ",
" ----------- ooOO@$%% ----------- ",
" ----------- ooO+@$%* ----------- ",
" -----------XoOO+$%%*X----------- ",
" ------------ o+#$%*.------------ ",
" ------------XoO+$%*.------------ ",
" -------------X     ------------- ",
" -------------- o@ -------------- ",
" -------------- O+ -------------- ",
" -------------      ------------- ",
" -------------XoO@$ ------------- ",
" -------------.oO@*X------------- ",
" ------------- O+$* ------------- ",
" ------------.oOO@$* ------------ ",
" ----------           X---------- ",
" -----------XoOO+@@$% ----------- ",
" ---------. ooO+@$$%%* X--------- ",
" --------- ooOOO+@$$%%* --------- ",
" ------X                X .------ ",
" ------- oooooooO++@@$$%*X------- ",
" -------- oooooOOOO+@@@$ -------- ",
" --------.ooooOOOO+@@@$% -------- ",
" -------XXooooooO++@$$%%*X------- ",
" ------                   .------ ",
"                                  "
};
